<?xml version="1.0" standalone="no"?>
<!DOCTYPE svg PUBLIC "-//W3C//DTD SVG 1.1//EN" "http://www.w3.org/Graphics/SVG/1.1/DTD/svg11.dtd" >
<svg xmlns="http://www.w3.org/2000/svg">
<metadata>
This is a custom SVG webfont generated by Font Squirrel.
Copyright   : Copyright c 2008 by Daniel Hernndez Snchez All rights reserved
Designer    : Daniel Hernndez Snchez
Foundry     : Daniel Hernndez Snchez
</metadata>
<defs>
<font id="webfontOHYe7C3E" horiz-adv-x="954" >
<font-face units-per-em="2048" ascent="1536" descent="-512" />
<missing-glyph horiz-adv-x="284" />
<glyph unicode=" "  horiz-adv-x="284" />
<glyph unicode="&#x09;" horiz-adv-x="284" />
<glyph unicode="&#xa0;" horiz-adv-x="284" />
<glyph unicode="!" horiz-adv-x="473" d="M0 420v1073h430v-928q0 -145 -141 -145h-289zM2 0v375h430v-375h-430z" />
<glyph unicode="&#x22;" horiz-adv-x="202" d="M0 1364v119h59v-119h-59zM102 1364v119h60v-119h-60z" />
<glyph unicode="#" horiz-adv-x="499" d="M0 586v53h113v145h-113v54h113v82h53v-82h137v82h53v-82h103v-54h-103v-145h103v-53h-103v-92h-53v92h-137v-92h-53v92h-113zM166 639h137v145h-137v-145z" />
<glyph unicode="$" d="M0 143v412h430v-152q0 -29 26.5 -28.5t26.5 28.5v197h-342q-141 0 -141 145v601q0 145 141 145h631q141 0 141 -145v-318h-430v57q0 29 -26.5 29t-26.5 -29v-110h342q141 0 141 -146v-684q0 -145 -143 -145h-625q-145 0 -145 143zM428 66h59v210h-59v-210zM428 1225h59 v211h-59v-211z" />
<glyph unicode="&#x26;" horiz-adv-x="999" d="M0 145v1346h909v-328h-479v-76h53v41h428v-41h47v-419h-47v-50h2v-473q0 -145 -141 -145h-631q-141 0 -141 145zM430 406q0 -31 29 -31h24v293h-53v-262z" />
<glyph unicode="'" horiz-adv-x="100" d="M0 1364v119h59v-119h-59z" />
<glyph unicode="(" horiz-adv-x="188" d="M0 0v1491h147v-53h-94v-1385h94v-53h-147z" />
<glyph unicode=")" horiz-adv-x="188" d="M0 0v53h94v1385h-94v53h147v-1491h-147z" />
<glyph unicode="*" horiz-adv-x="356" d="M0 1237v53h90l-63 66l36 39l76 -76v98h54v-86l61 62l39 -39l-64 -64h86v-53h-94l66 -66l-39 -38l-55 55v-86h-54v98l-69 -67l-39 36l67 68h-98z" />
<glyph unicode="+" horiz-adv-x="452" d="M0 696v54h188v159h54v-159h170v-54h-170v-176h-54v176h-188z" />
<glyph unicode="," horiz-adv-x="100" d="M0 53h59v-119h-59v119z" />
<glyph unicode="-" horiz-adv-x="395" d="M0 696v54h354v-54h-354z" />
<glyph unicode="." horiz-adv-x="100" d="M0 4v55h59v-55h-59z" />
<glyph unicode="/" horiz-adv-x="212" d="M0 -66l119 1602h53l-119 -1602h-53z" />
<glyph unicode="0" d="M0 145v1201q0 145 141 145h631q141 0 141 -145v-1201q0 -145 -141 -145h-631q-141 0 -141 145zM430 403q0 -29 26.5 -28.5t26.5 28.5v682q0 29 -26.5 29t-26.5 -29v-682z" />
<glyph unicode="1" horiz-adv-x="471" d="M0 0v1491h289q141 0 141 -145v-1346h-430z" />
<glyph unicode="2" d="M0 0v750q0 145 141 145h342v190q0 29 -26.5 29t-26.5 -29v-135h-289q-141 0 -141 146v250q0 145 141 145h631q141 0 141 -145v-680q0 -145 -141 -146h-315q-27 0 -27 -28v-115h53v98h430v-475h-913z" />
<glyph unicode="3" d="M0 145v295q0 145 141 146h289v-183q0 -29 26.5 -28.5t26.5 28.5v199q0 29 -26 29h-314v350h314q27 0 26 29v75q0 29 -26.5 29t-26.5 -29v-61h-289q-141 0 -141 145v177q0 145 141 145h631q141 0 141 -145v-455q0 -145 -143 -146v-28q143 0 143 -146v-430 q0 -141 -145 -141h-627q-141 0 -141 145z" />
<glyph unicode="4" d="M0 567v924h430v-666q0 -29 27 -28h26v694h430v-1491h-430v422h-342q-141 0 -141 145z" />
<glyph unicode="5" d="M0 145v318h430v-60q0 -29 26.5 -28.5t26.5 28.5v113h-342q-141 0 -141 146v829h913v-555h-430v178h-26q-27 0 -27 -29v-161q0 -33 27 -33h315q141 0 141 -146v-600q0 -145 -141 -145h-631q-141 0 -141 145z" />
<glyph unicode="6" d="M0 145v1201q0 145 141 145h629q143 0 143 -145v-410h-430v149q0 29 -26.5 29t-26.5 -29v-194h342q141 0 141 -146v-600q0 -145 -141 -145h-631q-141 0 -141 145zM430 403q0 -29 26.5 -28.5t26.5 28.5v84q0 29 -26 29h-27v-113z" />
<glyph unicode="7" d="M0 842v649h772q141 0 141 -145v-1346h-430v1085q0 29 -26 29h-27v-272h-430z" />
<glyph unicode="8" d="M0 145v600q0 137 127 146q-127 6 -127 131v332q4 137 141 137h631q141 0 141 -145v-316q0 -133 -127 -139q127 -8 127 -146v-600q0 -145 -141 -145h-631q-141 0 -141 145zM430 403q0 -29 26.5 -28.5t26.5 28.5v144q0 29 -26.5 28.5t-26.5 -28.5v-144zM430 920 q0 -29 26.5 -29t26.5 29v165q0 29 -26.5 29t-26.5 -29v-165z" />
<glyph unicode="9" d="M0 145v410h430v-152q0 -29 26.5 -28.5t26.5 28.5v197h-342q-141 0 -141 145v601q0 70 35 107.5t106 35.5h631q72 2 106.5 -36t34.5 -107v-1201q0 -70 -34.5 -107.5t-106.5 -35.5l-629 -2q-143 0 -143 145zM430 1004q0 -29 27 -29h26v112q0 29 -26.5 29t-26.5 -29v-83z " />
<glyph unicode=":" horiz-adv-x="100" d="M0 588v55h59v-55h-59zM0 795v55h59v-55h-59z" />
<glyph unicode=";" horiz-adv-x="100" d="M0 524v119h59v-119h-59zM0 795v55h59v-55h-59z" />
<glyph unicode="&#x3c;" horiz-adv-x="327" d="M0 696l244 193l37 -37l-199 -156l205 -170l-37 -37z" />
<glyph unicode="=" horiz-adv-x="452" d="M0 618v54h412v-54h-412zM0 721v53h412v-53h-412z" />
<glyph unicode="&#x3e;" horiz-adv-x="327" d="M0 879l37 36l250 -206l-244 -193l-37 37l199 156z" />
<glyph unicode="?" d="M0 0v377h430v-377h-430zM0 420v330q0 145 141 145h342v219h-53v-166h-430v398q0 145 141 145h631q141 0 141 -145v-680q0 -145 -141 -146h-313q-27 0 -29 -20v-80h-430z" />
<glyph unicode="@" horiz-adv-x="1904" d="M0 145v1203q0 143 147 143h1573q143 0 144 -152v-1339h-430v1159h-828q-84 0 -130 -47t-46 -119v-465q0 -74 45 -113.5t129 -39.5h785v-375h-1248q-141 0 -141 145zM475 586v383q0 145 141 145h773v-694h-771q-143 0 -143 166zM905 711q0 -18 27 -19h26v150h-24 q-29 0 -29 -21v-110z" />
<glyph unicode="A" d="M0 0v1346q0 145 141 145h629q143 0 143 -145v-1346h-430v545h-53v-545h-430zM430 774h53v311q0 29 -26.5 29t-26.5 -29v-311z" />
<glyph unicode="B" d="M0 0v1491h772q141 0 141 -145v-455q0 -145 -141 -146v-28q141 0 141 -146v-426q0 -145 -145 -145h-768zM430 375h27q27 0 26 28v199q0 29 -26 29h-27v-256zM430 803h27q27 0 26 22v260q0 29 -26 29h-27v-311z" />
<glyph unicode="C" d="M0 145v1201q0 145 141 145h631q141 0 141 -148v-921h-430v663q0 29 -26.5 29t-26.5 -29v-673q0 -37 37 -37h446v-375h-772q-141 0 -141 145z" />
<glyph unicode="D" d="M0 0v1491h772q141 0 141 -145v-1201q0 -145 -141 -145h-772zM430 375h25q29 0 28 28v678q0 29 -22 29h-31v-735z" />
<glyph unicode="E" d="M0 145v1201q0 145 141 145h631q141 0 141 -148v-778q0 -143 -145 -143h-338v-10q0 -37 37 -37h446v-375h-772q-141 0 -141 145zM430 797h27q27 0 26 28v260q0 29 -26.5 29t-26.5 -29v-288z" />
<glyph unicode="F" d="M0 0v1346q0 145 141 145h631q141 0 141 -148v-501h-430v243q0 29 -26.5 29t-26.5 -29v-288h483v-375h-483v-422h-430z" />
<glyph unicode="G" d="M0 -45h483v45h-342q-141 0 -141 145v1201q0 145 141 145h772v-1767q0 -145 -141 -146h-772v377zM430 395q2 -20 29 -20h24v739h-32q-18 -2 -21 -20v-699z" />
<glyph unicode="H" d="M0 0v1491h289q141 0 141 -145v-523q0 -20 26.5 -20t26.5 20v523q0 145 142 145h288v-1491h-288q-141 0 -142 145v457q0 29 -26.5 29t-26.5 -29v-457q0 -145 -141 -145h-289z" />
<glyph unicode="I" horiz-adv-x="471" d="M0 0v1114h430v-1114h-430zM0 1157v332h430v-332h-430z" />
<glyph unicode="J" horiz-adv-x="473" d="M-481 -45h446q37 0 37 39v1120h430v-1390q0 -145 -141 -146h-772v377zM2 1159v332h430v-332h-430z" />
<glyph unicode="K" d="M0 0v1491h430v-688h25q27 0 28 20v523q0 145 142 145h288v-600q0 -145 -141 -146h-2v-28h2q141 0 141 -146v-571h-288q-141 0 -142 145v457q0 29 -28 29h-25v-631h-430z" />
<glyph unicode="L" horiz-adv-x="593" d="M0 145v1346h430v-1088q0 -29 27 -28h96v-375h-412q-141 0 -141 145z" />
<glyph unicode="M" horiz-adv-x="1429" d="M0 0v1491l1247 2q141 0 142 -145v-1348h-289q-141 0 -142 145v942q0 27 -22 29h-23v-1116h-288q-141 0 -142 145v949q-2 16 -22 20h-31v-1114h-430z" />
<glyph unicode="N" d="M0 0v1491h772q141 0 141 -145v-1346h-288q-141 0 -142 145v949q-2 18 -22 20h-31v-1114h-430z" />
<glyph unicode="O" d="M0 145v1201q0 145 141 145h631q141 0 141 -145v-1201q0 -145 -141 -145h-631q-141 0 -141 145zM430 403q0 -29 26.5 -28.5t26.5 28.5v682q0 29 -26.5 29t-26.5 -29v-682z" />
<glyph unicode="P" d="M0 0v1491h772q141 0 141 -145v-781q0 -145 -141 -145h-342v-420h-430zM430 752h25q29 0 28 20v313q0 29 -22 29h-31v-362z" />
<glyph unicode="Q" d="M0 145v1201q0 145 141 145h631q141 0 141 -145v-1391h949v-377h-1237q-141 0 -142 146v276h-342q-141 0 -141 145zM430 403q0 -29 29 -28h24v710q0 29 -26.5 29t-26.5 -29v-682z" />
<glyph unicode="R" d="M0 0v1491h772q68 0 104.5 -37t36.5 -96v-467q0 -145 -141 -146h-2v-28h2q141 0 141 -146v-571h-288q-141 0 -142 145v457q0 29 -28 29h-25v-631h-430zM430 803h25q27 0 28 20v291h-53v-311z" />
<glyph unicode="S" d="M0 143v412h430v-152q0 -29 26.5 -28.5t26.5 28.5v197h-342q-141 0 -141 145v601q0 145 141 145h631q141 0 141 -145v-318h-430v57q0 29 -26.5 29t-26.5 -29v-110h342q141 0 141 -146v-684q0 -145 -143 -145h-625q-145 0 -145 143z" />
<glyph unicode="T" d="M0 145v1346h430v-373h483v-420h-483v-292q0 -29 21 -29l462 -2v-375h-772q-141 0 -141 145z" />
<glyph unicode="U" d="M0 145v1346h285q145 0 145 -143v-942q0 -31 29 -31h24v1100h430v-1475h-772q-141 0 -141 145z" />
<glyph unicode="V" d="M0 145v1346h301q61 0 94 -44t33 -110l2 -934q0 -29 26.5 -28.5t26.5 28.5l-4 940q0 147 146 148h284q4 -1174 4 -1346q0 -145 -141 -145h-631q-141 0 -141 145z" />
<glyph unicode="W" horiz-adv-x="1429" d="M0 145v1346h285q145 0 145 -143v-945q0 -29 21 -28h32v1100h430v-1080q0 -20 21 -20h24v971q0 145 144 145h287v-1346q0 -145 -144 -145h-69l-521 2v-2h-514q-141 0 -141 145z" />
<glyph unicode="X" d="M0 0v571q0 145 141 146h2v28h-2q-141 0 -141 146v600h289q141 0 141 -145v-515q2 -29 27 -28q27 0 26 28v515q0 145 142 145h288v-600q0 -145 -141 -146h-2v-28h2q141 0 141 -146v-571h-288q-141 0 -142 145v455q0 31 -26.5 31t-26.5 -31v-455q0 -145 -141 -145h-289z " />
<glyph unicode="Y" d="M0 143v506h430v-246q0 -29 26.5 -28.5t26.5 28.5v291h-342q-141 0 -141 146v651h430v-389q0 -33 27 -33h26v422h430v-1346q0 -145 -143 -145h-625q-145 0 -145 143z" />
<glyph unicode="Z" d="M0 0v975h483v139h-53v-86h-430v463h913v-891h-483v-194q0 -29 29 -29h24v178h430v-555h-913z" />
<glyph unicode="[" horiz-adv-x="188" d="M0 0v1491h147v-53h-94v-1385h94v-53h-147z" />
<glyph unicode="\" horiz-adv-x="212" d="M0 1536h53l119 -1602h-53z" />
<glyph unicode="]" horiz-adv-x="188" d="M0 0v53h94v1385h-94v53h147v-1491h-147z" />
<glyph unicode="_" horiz-adv-x="430" d="M0 0v53h389v-53h-389z" />
<glyph unicode="`" horiz-adv-x="237" d="M0 1354l37 37l160 -160l-37 -37z" />
<glyph unicode="a" d="M-131 0v375h1044v-375h-1044zM0 420v926q0 145 141 145h631q141 0 141 -145v-926h-430v125h-53v-125h-430zM430 774h53v311q0 29 -26.5 29t-26.5 -29v-311z" />
<glyph unicode="b" d="M0 0v1491h772q141 0 141 -145v-455q0 -145 -141 -146v-28q141 0 141 -146v-426q0 -145 -145 -145h-768zM430 375h27q27 0 26 28v199q0 29 -26 29h-27v-256zM430 803h27q27 0 26 22v260q0 29 -26 29h-27v-311z" />
<glyph unicode="c" d="M0 145v1201q0 145 141 145h631q141 0 141 -148v-921h-430v663q0 29 -26.5 29t-26.5 -29v-673q0 -37 37 -37h446v-375h-772q-141 0 -141 145z" />
<glyph unicode="d" d="M0 0v1491h772q141 0 141 -145v-1201q0 -145 -141 -145h-772zM430 375h25q29 0 28 28v678q0 29 -22 29h-31v-735z" />
<glyph unicode="e" horiz-adv-x="956" d="M-131 0v375h1046v-375h-1046zM2 565v781q0 145 141 145h772v-332h-462q-20 0 -21 -20v-25h483v-317h-483v-25q0 -20 21 -20h462v-332h-772q-141 0 -141 145z" />
<glyph unicode="f" d="M0 0v1346q0 145 141 145h631q141 0 141 -148v-501h-430v243q0 29 -26.5 29t-26.5 -29v-288h483v-375h-483v-422h-430zM479 0v375h475v-375h-475z" />
<glyph unicode="g" d="M0 0v375h340v45h-199q-141 0 -141 145v781q0 145 141 145h631q141 0 141 -145v-781q0 -145 -141 -145l-2 -275q0 -145 -141 -145h-629zM430 780q0 -29 26.5 -28.5t26.5 28.5v350q0 29 -26.5 29t-26.5 -29v-350z" />
<glyph unicode="h" d="M0 0v1491h289q141 0 141 -145v-523q0 -20 26.5 -20t26.5 20v523q0 145 142 145h288v-1491h-288q-141 0 -142 145v457q0 29 -26.5 29t-26.5 -29v-457q0 -145 -141 -145h-289z" />
<glyph unicode="i" horiz-adv-x="471" d="M-133 0v375h563v-375h-563zM0 420v694h430v-694h-430zM0 1157v332h430v-332h-430z" />
<glyph unicode="j" d="M0 145v697h430v-467h53v739h430v-969q0 -145 -141 -145h-631q-141 0 -141 145zM483 1159v332h430v-332h-430z" />
<glyph unicode="k" d="M0 0v1491h430v-688h25q27 0 28 20v523q0 145 142 145h288v-600q0 -145 -141 -146h-2v-28h2q141 0 141 -146v-571h-288q-141 0 -142 145v457q0 29 -28 29h-25v-631h-430z" />
<glyph unicode="l" horiz-adv-x="471" d="M0 145v1346h430v-1491h-289q-141 0 -141 145z" />
<glyph unicode="m" horiz-adv-x="1429" d="M0 0v1491l1247 2q141 0 142 -145v-1348h-289q-141 0 -142 145v942q0 27 -22 29h-23v-1116h-288q-141 0 -142 145v949q-2 16 -22 20h-31v-1114h-430z" />
<glyph unicode="n" d="M0 0v1491h772q141 0 141 -145v-1346h-288q-141 0 -142 145v949q-2 18 -22 20h-31v-1114h-430z" />
<glyph unicode="o" d="M-133 0v375h1046v-375h-1046zM0 565v781q0 145 141 145h631q141 0 141 -145v-781q0 -145 -141 -145h-631q-141 0 -141 145zM430 780q0 -29 26.5 -28.5t26.5 28.5v350q0 29 -26.5 29t-26.5 -29v-350z" />
<glyph unicode="p" d="M0 0v1491h772q141 0 141 -145v-781q0 -145 -141 -145h-342v-420h-430zM430 752h25q29 0 28 20v313q0 29 -22 29h-31v-362zM479 0v375h475v-375h-475z" />
<glyph unicode="q" d="M0 565v781q0 145 141 145h631q141 0 141 -145v-781q0 -145 -141 -145h-2v-45h143v-375h-432q-141 0 -141 145v275h-199q-141 0 -141 145zM430 780q0 -29 26.5 -28.5t26.5 28.5v350q0 29 -26.5 29t-26.5 -29v-350z" />
<glyph unicode="r" d="M0 0v1491h772q68 0 104.5 -37t36.5 -96v-467q0 -145 -141 -146h-2v-28h2q141 0 141 -146v-571h-288q-141 0 -142 145v457q0 29 -28 29h-25v-631h-430zM430 803h25q29 0 28 20v291h-53v-311z" />
<glyph unicode="s" d="M0 145v410h430v-152q0 -29 26.5 -28.5t26.5 28.5v197h-342q-141 0 -141 145v601q0 145 141 145h631q141 0 141 -145v-318h-430v57q0 29 -26.5 29t-26.5 -29v-110h342q141 0 141 -146v-684q0 -145 -141 -145h-631q-141 0 -141 145z" />
<glyph unicode="t" d="M0 145v1346h430v-377h483v-420h-483v-288q0 -31 29 -31h24v243h430v-473q0 -145 -141 -145h-631q-141 0 -141 145z" />
<glyph unicode="u" d="M-133 0v375h1046v-375h-1046zM0 565v926h426l4 -711q0 -29 26.5 -28.5t26.5 28.5l-4 711h430q4 -754 4 -926q0 -145 -141 -145h-631q-141 0 -141 145z" />
<glyph unicode="v" d="M0 145v1346h301q61 0 94 -44t33 -110l2 -934q0 -29 26.5 -28.5t26.5 28.5l-4 940q0 147 146 148h284q4 -1174 4 -1346q0 -145 -141 -145h-631q-141 0 -141 145z" />
<glyph unicode="w" horiz-adv-x="1429" d="M0 145v1346h285q145 0 145 -143v-945q0 -29 21 -28h32v1100h430v-1080q0 -20 21 -20h24v971q0 145 144 145h287v-1346q0 -145 -144 -145h-69l-521 2v-2h-514q-141 0 -141 145z" />
<glyph unicode="x" d="M0 0v571q0 145 141 146h2v28h-2q-141 0 -141 146v600h289q141 0 141 -145v-515q2 -29 27 -28q27 0 26 28v515q0 145 142 145h288v-600q0 -145 -141 -146h-2v-28h2q141 0 141 -146v-571h-288q-141 0 -142 145v455q0 31 -26.5 31t-26.5 -31v-455q0 -145 -141 -145h-289z " />
<glyph unicode="y" d="M0 143v506h430v-246q0 -29 26.5 -28.5t26.5 28.5v291h-342q-141 0 -141 146v651h430v-389q0 -33 27 -33h26v422h430v-1346q0 -145 -143 -145h-625q-145 0 -145 143z" />
<glyph unicode="z" d="M0 0v975h483v139h-53v-86h-430v463h913v-891h-483v-194q0 -29 29 -29h24v178h430v-555h-913z" />
<glyph unicode="{" horiz-adv-x="268" d="M0 694v54h80v743h147v-53h-94v-1385h94v-53h-147v694h-80z" />
<glyph unicode="|" horiz-adv-x="94" d="M0 -66v1602h53v-1602h-53z" />
<glyph unicode="}" horiz-adv-x="268" d="M0 0v53h94v1385h-94v53h147v-743h80v-54h-80v-694h-147z" />
<glyph unicode="&#xa2;" d="M0 145v1201q0 145 141 145h631q141 0 141 -148v-921h-430v663q0 29 -26.5 29t-26.5 -29v-673q0 -37 37 -37h446v-375h-772q-141 0 -141 145zM428 70h59v211h-59v-211zM428 1196h59v211h-59v-211z" />
<glyph unicode="&#xa3;" horiz-adv-x="593" d="M0 145v1346h430v-1088q0 -29 27 -28h96v-375h-412q-141 0 -141 145zM49 1053h332v53h-332v-53z" />
<glyph unicode="&#xa5;" d="M0 143v506h430v-246q0 -29 26.5 -28.5t26.5 28.5v291h-342q-141 0 -141 146v651h430v-389q0 -33 27 -33h26v422h430v-1346q0 -145 -143 -145h-625q-145 0 -145 143zM272 836h412v53h-412v-53zM272 938h412v53h-412v-53z" />
<glyph unicode="&#xad;" horiz-adv-x="395" d="M0 696v54h354v-54h-354z" />
<glyph unicode="&#xb4;" horiz-adv-x="237" d="M0 1268l160 159l37 -36l-160 -160z" />
<glyph unicode="&#x2000;" horiz-adv-x="768" />
<glyph unicode="&#x2001;" horiz-adv-x="1536" />
<glyph unicode="&#x2002;" horiz-adv-x="768" />
<glyph unicode="&#x2003;" horiz-adv-x="1536" />
<glyph unicode="&#x2004;" horiz-adv-x="512" />
<glyph unicode="&#x2005;" horiz-adv-x="382" />
<glyph unicode="&#x2006;" horiz-adv-x="256" />
<glyph unicode="&#x2007;" horiz-adv-x="256" />
<glyph unicode="&#x2008;" horiz-adv-x="190" />
<glyph unicode="&#x2009;" horiz-adv-x="307" />
<glyph unicode="&#x200a;" horiz-adv-x="83" />
<glyph unicode="&#x2010;" horiz-adv-x="395" d="M0 696v54h354v-54h-354z" />
<glyph unicode="&#x2011;" horiz-adv-x="395" d="M0 696v54h354v-54h-354z" />
<glyph unicode="&#x2012;" horiz-adv-x="395" d="M0 696v54h354v-54h-354z" />
<glyph unicode="&#x2013;" horiz-adv-x="526" d="M0 696v54h485v-54h-485z" />
<glyph unicode="&#x2014;" horiz-adv-x="724" d="M0 696v54h684v-54h-684z" />
<glyph unicode="&#x2018;" horiz-adv-x="100" d="M0 1364v119h59v-119h-59z" />
<glyph unicode="&#x2019;" horiz-adv-x="100" d="M0 1364v119h59v-119h-59z" />
<glyph unicode="&#x201c;" horiz-adv-x="202" d="M0 1364v119h59v-119h-59zM102 1364v119h60v-119h-60z" />
<glyph unicode="&#x201d;" horiz-adv-x="202" d="M0 1364v119h59v-119h-59zM102 1364v119h60v-119h-60z" />
<glyph unicode="&#x2022;" horiz-adv-x="477" d="M0 0v375h436v-375h-436z" />
<glyph unicode="&#x2026;" horiz-adv-x="288" d="M0 4v55h59v-55h-59zM96 4v55h60v-55h-60zM188 4v55h60v-55h-60z" />
<glyph unicode="&#x202f;" horiz-adv-x="307" />
<glyph unicode="&#x205f;" horiz-adv-x="382" />
<glyph unicode="&#x20ac;" d="M0 145v1201q0 145 141 145h631q141 0 141 -145v-1201q0 -145 -141 -145h-631q-141 0 -141 145zM272 618h412v54h-412v-54zM272 721h412v53h-412v-53zM430 403q0 -29 26.5 -28.5t26.5 28.5v682q0 29 -26.5 29t-26.5 -29v-682z" />
<glyph unicode="&#x2122;" horiz-adv-x="2383" d="M954 0v1491l1247 2q141 0 142 -145v-1348h-289q-141 0 -142 145v942q0 27 -22 29h-23v-1116h-288q-141 0 -142 145v949q-2 16 -22 20h-31v-1114h-430zM0 145v1346h430v-373h483v-420h-483v-292q0 -29 21 -29l462 -2v-375h-772q-141 0 -141 145z" />
<glyph unicode="&#xe000;" horiz-adv-x="1490" d="M0 1490h1490v-1490h-1490v1490z" />
<glyph unicode="&#xfb01;" horiz-adv-x="1425" d="M821 0v375h563v-375h-563zM954 420v694h430v-694h-430zM954 1157v332h430v-332h-430zM0 0v1346q0 145 141 145h631q141 0 141 -148v-501h-430v243q0 29 -26.5 29t-26.5 -29v-288h483v-375h-483v-422h-430zM479 0v375h475v-375h-475z" />
<glyph unicode="&#xfb02;" horiz-adv-x="1425" d="M954 145v1346h430v-1491h-289q-141 0 -141 145zM0 0v1346q0 145 141 145h631q141 0 141 -148v-501h-430v243q0 29 -26.5 29t-26.5 -29v-288h483v-375h-483v-422h-430zM479 0v375h475v-375h-475z" />
<glyph unicode="&#xfb03;" horiz-adv-x="2379" d="M1776 0v375h563v-375h-563zM1909 420v694h430v-694h-430zM1909 1157v332h430v-332h-430zM954 0v1346q0 145 141 145h631q141 0 141 -148v-501h-430v243q0 29 -26.5 29t-26.5 -29v-288h483v-375h-483v-422h-430zM1433 0v375h475v-375h-475zM0 0v1346q0 145 141 145h631 q141 0 141 -148v-501h-430v243q0 29 -26.5 29t-26.5 -29v-288h483v-375h-483v-422h-430zM479 0v375h475v-375h-475z" />
<glyph unicode="&#xfb04;" horiz-adv-x="2379" d="M1909 145v1346h430v-1491h-289q-141 0 -141 145zM954 0v1346q0 145 141 145h631q141 0 141 -148v-501h-430v243q0 29 -26.5 29t-26.5 -29v-288h483v-375h-483v-422h-430zM1433 0v375h475v-375h-475zM0 0v1346q0 145 141 145h631q141 0 141 -148v-501h-430v243 q0 29 -26.5 29t-26.5 -29v-288h483v-375h-483v-422h-430zM479 0v375h475v-375h-475z" />
<glyph horiz-adv-x="284" />
</font>
</defs>
</svg>
